<!DOCTYPE svg PUBLIC "-//W3C//DTD SVG 1.1//EN" "http://www.w3.org/Graphics/SVG/1.1/DTD/svg11.dtd">
<!-- Uploaded to: SVG Repo, www.svgrepo.com, Transformed by: SVG Repo Mixer Tools -->
<svg width="256px" height="256px" viewBox="0 0 100.00 100.00" xmlns="http://www.w3.org/2000/svg" version="1.1" fill="" stroke="">
<g id="SVGRepo_bgCarrier" stroke-width="0"/>
<g id="SVGRepo_tracerCarrier" stroke-linecap="round" stroke-linejoin="round" stroke="#ebeca7" stroke-width="0.6"> <path style="fill:#dbc2c2;stroke:#5e3b3b" d="m 41,81 0,8 c 0,0 -6,0 -7,0 -4,0 -6,6 -6,6 2,0 43,0 44,0 0,0 -1,-6 -4,-6 -2,0 -7,0 -7,0 l 0,-8"/> <path style="fill:none;stroke:#5e3b3b;stroke-width:7.2;stroke-linecap:butt" d="m 4.7,74 c 0,-16 0,-45 0,-57 0,-4 0,-8.8 5.2,-8.8 9.1,0 76.1,0 81.1,0 5,0 5,4.8 5,12.8 0,11 0,46 0,53 0,1 0,5 -8,5 -5,0 -74,0 -78.1,0 -5.2,0 -5.2,-5 -5.2,-5 z"/> <path style="fill:#7ebeec;stroke:#ffffff" d="M 7.8,12 93,12 93,75 7.8,75 z"/> <path style="fill:none;stroke:#133f1e;stroke-width:7.2;" d="m 31,42 17,0 M 13,43 27,30 13,17"/> </g>
<g id="SVGRepo_iconCarrier"> <path style="fill:#dbc2c2;stroke:#5e3b3b" d="m 41,81 0,8 c 0,0 -6,0 -7,0 -4,0 -6,6 -6,6 2,0 43,0 44,0 0,0 -1,-6 -4,-6 -2,0 -7,0 -7,0 l 0,-8"/> <path style="fill:none;stroke:#5e3b3b;stroke-width:7.5;stroke-linecap:butt" d="m 4.7,74 c 0,-16 0,-45 0,-57 0,-4 0,-8.8 5.2,-8.8 9.1,0 76.1,0 81.1,0 5,0 5,4.8 5,12.8 0,11 0,46 0,53 0,1 0,5 -8,5 -5,0 -74,0 -78.1,0 -5.2,0 -5.2,-5 -5.2,-5 z"/> <path style="fill:#7ebeec;stroke:#ffffff" d="M 7.8,12 93,12 93,75 7.8,75 z"/> <path style="fill:none;stroke:#133f1e;stroke-width:7.5;" d="m 31,42 17,0 M 13,43 27,30 13,17"/> </g>
</svg>